<svg xmlns="http://www.w3.org/2000/svg" viewBox="0 0 200 40">
        <defs>
          <clipPath id="squareClip">
            <rect x="0" y="0" width="40" height="40" rx="0" />
          </clipPath>
        </defs>
        <g clip-path="url(#squareClip)">
          <rect x="0" y="0" width="40" height="40" fill="#E4DAFF" />
          <g transform="translate(20 20)">
            <g transform="scale(0.08)">
              <g transform="translate(-128 -128)">
                <path d="M196.12,128c24.65-34.61,37.22-70.38,19.74-87.86S162.61,35.23,128,59.88C93.39,35.23,57.62,22.66,40.14,40.14S35.23,93.39,59.88,128c-24.65,34.61-37.22,70.38-19.74,87.86h0c5.63,5.63,13.15,8.14,21.91,8.14,18.47,0,42.48-11.17,66-27.88C151.47,212.83,175.47,224,194,224c8.76,0,16.29-2.52,21.91-8.14h0C233.34,198.38,220.77,162.61,196.12,128Zm8.43-76.55c7.64,7.64,2.48,32.4-18.52,63.28a300.33,300.33,0,0,0-21.19-23.57A302.47,302.47,0,0,0,141.27,70C172.15,49,196.91,43.81,204.55,51.45Zm-153.1,0c2.2-2.21,5.83-3.35,10.62-3.35C73.89,48.1,92.76,55,114.72,70A304,304,0,0,0,91.16,91.16,300.33,300.33,0,0,0,70,114.73C49,83.85,43.81,59.09,51.45,51.45Zm0,153.1C43.81,196.91,49,172.15,70,141.27a300.33,300.33,0,0,0,21.19,23.57A304.18,304.18,0,0,0,114.73,186C83.85,207,59.09,212.19,51.45,204.55ZM128,140a12,12,0,1,1,12-12A12,12,0,0,1,128,140Zm76.55,64.56c-7.64,7.65-32.4,2.48-63.28-18.52a304.18,304.18,0,0,0,23.57-21.19A300.33,300.33,0,0,0,186,141.27C207,172.15,212.19,196.91,204.55,204.55Z" fill="#342168"></path>
              </g>
            </g>
          </g>
        </g>
        <path fill="#342168" d="M49.34 29L46.61 29L46.61 12.20L49.34 12.20L49.34 18.97L57.26 18.97L57.26 12.20L59.98 12.20L59.98 29L57.26 29L57.26 21.25L49.34 21.25L49.34 29ZM65.71 34.28L62.86 34.28L65.47 28.47L60.55 17.10L63.58 17.10L66.94 25.59L70.42 17.10L73.27 17.10L65.71 34.28ZM76.20 34.28L73.49 34.28L73.49 17.10L76.13 17.10L76.20 18.85Q76.85 17.94 77.90 17.37Q78.96 16.81 80.33 16.81L80.33 16.81Q82.08 16.81 83.34 17.64Q84.60 18.46 85.28 19.88Q85.97 21.30 85.97 23.02L85.97 23.02Q85.97 24.75 85.27 26.18Q84.58 27.61 83.32 28.45Q82.06 29.29 80.30 29.29L80.30 29.29Q78.82 29.29 77.77 28.68Q76.73 28.06 76.20 27.25L76.20 27.25L76.20 34.28ZM79.70 26.91L79.70 26.91Q80.74 26.91 81.53 26.40Q82.32 25.88 82.76 24.99Q83.21 24.10 83.21 23.02L83.21 23.02Q83.21 21.85 82.74 20.98Q82.27 20.12 81.48 19.65Q80.69 19.18 79.70 19.18L79.70 19.18Q78.70 19.18 77.90 19.68Q77.11 20.17 76.66 21.04Q76.20 21.92 76.20 23.05L76.20 23.05Q76.20 24.13 76.64 25.00Q77.09 25.88 77.87 26.40Q78.65 26.91 79.70 26.91ZM92.45 29.29L92.45 29.29Q90.65 29.29 89.30 28.48Q87.96 27.68 87.20 26.28Q86.45 24.87 86.45 23.05L86.45 23.05Q86.45 21.15 87.20 19.76Q87.96 18.37 89.32 17.59Q90.67 16.81 92.47 16.81L92.47 16.81Q94.22 16.81 95.52 17.56Q96.82 18.32 97.56 19.64Q98.30 20.96 98.30 22.64L98.30 22.64Q98.30 22.98 98.29 23.24Q98.28 23.50 98.23 23.82L98.23 23.82L89.18 23.82Q89.26 24.75 89.66 25.48Q90.07 26.22 90.78 26.62Q91.49 27.03 92.40 27.03L92.40 27.03Q93.38 27.03 94.07 26.60Q94.75 26.17 95.14 25.35L95.14 25.35L97.99 25.35Q97.66 26.43 96.92 27.32Q96.19 28.21 95.08 28.75Q93.96 29.29 92.45 29.29ZM89.21 21.92L89.21 21.92L95.52 21.92Q95.50 20.60 94.58 19.83Q93.67 19.06 92.40 19.06L92.40 19.06Q91.25 19.06 90.32 19.76Q89.40 20.46 89.21 21.92ZM101.78 29L99.07 29L99.07 17.10L101.71 17.10L101.76 19.04Q102.36 17.98 103.38 17.40Q104.40 16.81 105.74 16.81L105.74 16.81L105.74 19.66L105.00 19.66Q103.37 19.66 102.58 20.48Q101.78 21.30 101.78 23.02L101.78 23.02L101.78 29ZM113.06 29.29L113.06 29.29Q111.79 29.29 110.71 28.77Q109.63 28.26 108.96 27.25L108.96 27.25L108.91 29L106.25 29L106.25 12.20L108.96 12.20L108.96 18.87Q109.58 17.94 110.65 17.37Q111.72 16.81 113.09 16.81L113.09 16.81Q114.82 16.81 116.08 17.64Q117.34 18.46 118.03 19.87Q118.73 21.27 118.73 23.02L118.73 23.02Q118.73 24.75 118.03 26.18Q117.34 27.61 116.08 28.45Q114.82 29.29 113.06 29.29ZM112.46 26.91L112.46 26.91Q113.50 26.91 114.29 26.41Q115.08 25.90 115.52 25.00Q115.97 24.10 115.97 23.02L115.97 23.02Q115.97 21.85 115.50 20.98Q115.03 20.12 114.24 19.65Q113.45 19.18 112.46 19.18L112.46 19.18Q111.43 19.18 110.65 19.68Q109.87 20.17 109.43 21.04Q108.98 21.92 108.98 23.05L108.98 23.05Q108.98 24.18 109.43 25.05Q109.87 25.93 110.66 26.42Q111.46 26.91 112.46 26.91ZM125.21 29.29L125.21 29.29Q123.41 29.29 122.06 28.48Q120.72 27.68 119.96 26.28Q119.21 24.87 119.21 23.05L119.21 23.05Q119.21 21.15 119.96 19.76Q120.72 18.37 122.08 17.59Q123.43 16.81 125.23 16.81L125.23 16.81Q126.98 16.81 128.28 17.56Q129.58 18.32 130.32 19.64Q131.06 20.96 131.06 22.64L131.06 22.64Q131.06 22.98 131.05 23.24Q131.04 23.50 130.99 23.82L130.99 23.82L121.94 23.82Q122.02 24.75 122.42 25.48Q122.83 26.22 123.54 26.62Q124.25 27.03 125.16 27.03L125.16 27.03Q126.14 27.03 126.83 26.60Q127.51 26.17 127.90 25.35L127.90 25.35L130.75 25.35Q130.42 26.43 129.68 27.32Q128.95 28.21 127.84 28.75Q126.72 29.29 125.21 29.29ZM121.97 21.92L121.97 21.92L128.28 21.92Q128.26 20.60 127.34 19.83Q126.43 19.06 125.16 19.06L125.16 19.06Q124.01 19.06 123.08 19.76Q122.16 20.46 121.97 21.92ZM134.54 29L131.83 29L131.83 17.10L134.47 17.10L134.52 18.73Q135.12 17.79 136.18 17.30Q137.23 16.81 138.38 16.81L138.38 16.81Q140.47 16.81 141.77 18.13Q143.06 19.45 143.06 22.02L143.06 22.02L143.06 29L140.38 29L140.38 22.35Q140.38 20.84 139.66 19.98Q138.94 19.11 137.54 19.11L137.54 19.11Q136.15 19.11 135.35 20.04Q134.54 20.96 134.54 22.54L134.54 22.54L134.54 29ZM149.76 29.29L149.76 29.29Q148.01 29.29 146.66 28.50Q145.32 27.70 144.55 26.30Q143.78 24.90 143.78 23.05L143.78 23.05Q143.78 21.22 144.53 19.82Q145.27 18.42 146.62 17.61Q147.96 16.81 149.76 16.81L149.76 16.81Q151.92 16.81 153.40 17.90Q154.87 18.99 155.35 21.01L155.35 21.01L152.47 21.01Q152.26 20.17 151.54 19.64Q150.82 19.11 149.74 19.11L149.74 19.11Q148.66 19.11 147.96 19.65Q147.26 20.19 146.92 21.09Q146.57 21.99 146.57 23.05L146.57 23.05Q146.57 24.15 146.93 25.04Q147.29 25.93 148.00 26.46Q148.70 26.98 149.74 26.98L149.74 26.98Q150.79 26.98 151.50 26.49Q152.21 26 152.47 25.09L152.47 25.09L155.35 25.09Q155.06 26.38 154.28 27.33Q153.50 28.28 152.35 28.78Q151.20 29.29 149.76 29.29ZM159.00 29L156.29 29L156.29 12.20L159.00 12.20L159.00 18.70Q159.60 17.77 160.67 17.29Q161.74 16.81 162.86 16.81L162.86 16.81Q164.93 16.81 166.22 18.13Q167.52 19.45 167.52 22.02L167.52 22.02L167.52 29L164.83 29L164.83 22.35Q164.83 20.84 164.12 19.98Q163.42 19.11 162.05 19.11L162.05 19.11Q160.63 19.11 159.82 20.04Q159.00 20.96 159.00 22.54L159.00 22.54L159.00 29Z"/>
      </svg>